<?xml version="1.0" encoding="UTF-8"?>
<svg xmlns="http://www.w3.org/2000/svg" xmlns:xlink="http://www.w3.org/1999/xlink" width="16pt" height="16pt" viewBox="0 0 16 16" version="1.1">
<g id="surface1">
<path style=" stroke:none;fill-rule:nonzero;fill:rgb(0%,0%,0%);fill-opacity:1;" d="M 8.433594 6.667969 C 7.882812 5.113281 6.40625 4 4.667969 4 C 2.457031 4 0.667969 5.789062 0.667969 8 C 0.667969 10.210938 2.457031 12 4.667969 12 C 6.40625 12 7.882812 10.886719 8.433594 9.332031 L 11.332031 9.332031 L 11.332031 12 L 14 12 L 14 9.332031 L 15.332031 9.332031 L 15.332031 6.667969 Z M 4.667969 9.332031 C 3.929688 9.332031 3.332031 8.738281 3.332031 8 C 3.332031 7.261719 3.929688 6.667969 4.667969 6.667969 C 5.402344 6.667969 6 7.261719 6 8 C 6 8.738281 5.402344 9.332031 4.667969 9.332031 Z M 4.667969 9.332031 "/>
</g>
</svg>
