<?xml version="1.0" ?><svg viewBox="0 0 32 32" xmlns="http://www.w3.org/2000/svg"><defs><style>.cls-1{fill:#0e6ae0;}.cls-2{fill:#0593ff;}.cls-3{fill:#d8e1ef;}</style></defs><title/><g data-name="Cyber Security" id="Cyber_Security"><path class="cls-1" d="M18,14H14a1,1,0,0,1-1-1V11a3,3,0,0,1,6,0v2A1,1,0,0,1,18,14Zm-3-2h2V11a1,1,0,0,0-2,0Z"/><rect class="cls-2" height="12" rx="3" ry="3" width="12" x="10" y="12"/><path class="cls-1" d="M18,17a2,2,0,1,0-3,1.72V20a1,1,0,0,0,2,0V18.72A2,2,0,0,0,18,17Z"/><path class="cls-3" d="M16,7a1,1,0,0,1-1-1V4a1,1,0,0,1,2,0V6A1,1,0,0,1,16,7Z"/><path class="cls-3" d="M21,12a1,1,0,0,1-.71-.29,1,1,0,0,1,0-1.42L24,6.59V5a1,1,0,0,1,2,0V7a1,1,0,0,1-.29.71l-4,4A1,1,0,0,1,21,12Z"/><path class="cls-3" d="M11,12a1,1,0,0,1-.71-.29l-4-4A1,1,0,0,1,6,7V5A1,1,0,0,1,8,5V6.59l3.71,3.7a1,1,0,0,1,0,1.42A1,1,0,0,1,11,12Z"/><path class="cls-3" d="M25,28a1,1,0,0,1-1-1V25.41l-1.71-1.7a1,1,0,0,1,1.42-1.42l2,2A1,1,0,0,1,26,25v2A1,1,0,0,1,25,28Z"/><path class="cls-3" d="M7,28a1,1,0,0,1-1-1V25a1,1,0,0,1,.29-.71l2-2a1,1,0,0,1,1.42,1.42L8,25.41V27A1,1,0,0,1,7,28Z"/><path class="cls-3" d="M16,29a1,1,0,0,1-1-1V26a1,1,0,0,1,2,0v2A1,1,0,0,1,16,29Z"/><path class="cls-3" d="M28,17H24a1,1,0,0,1,0-2h4a1,1,0,0,1,0,2Z"/><path class="cls-3" d="M8,17H4a1,1,0,0,1,0-2H8a1,1,0,0,1,0,2Z"/><path class="cls-3" d="M25,6a2,2,0,1,1,1.41-.59A2,2,0,0,1,25,6Z"/><path class="cls-3" d="M7,6a2,2,0,1,1,1.41-.59A2,2,0,0,1,7,6ZM7,4Z"/><path class="cls-3" d="M25,30a2,2,0,1,1,1.41-.59A2,2,0,0,1,25,30Zm0-2Z"/><path class="cls-3" d="M7,30a2,2,0,1,1,1.41-.59A2,2,0,0,1,7,30Z"/><circle class="cls-3" cx="29" cy="16" r="2"/><circle class="cls-3" cx="3" cy="16" r="2"/><path class="cls-3" d="M16,29Zm0,2a2,2,0,1,1,2-2A2,2,0,0,1,16,31Z"/><path class="cls-3" d="M16,5a2,2,0,1,1,2-2A2,2,0,0,1,16,5Zm0-2Z"/></g></svg>